<?xml version="1.0" standalone="no"?>
<!DOCTYPE svg PUBLIC "-//W3C//DTD SVG 20010904//EN"
 "http://www.w3.org/TR/2001/REC-SVG-20010904/DTD/svg10.dtd">
<svg version="1.0" xmlns="http://www.w3.org/2000/svg"
 width="228.000000pt" height="219.000000pt" viewBox="0 0 228.000000 219.000000"
 preserveAspectRatio="xMidYMid meet">

<g transform="translate(0.000000,219.000000) scale(0.100000,-0.100000)"
fill="#000000" stroke="none">
<path d="M1627 2073 c-7 -12 -135 -551 -143 -601 -4 -23 -9 -41 -11 -38 -3 2
7 73 21 156 29 166 30 158 -25 190 -13 8 -15 17 -8 52 9 51 3 57 -105 113 -58
30 -78 35 -135 35 l-68 0 -26 -107 c-17 -69 -24 -90 -21 -58 3 28 7 58 10 68
5 14 -2 17 -41 17 -42 0 -45 2 -40 23 12 58 25 141 21 145 -7 6 -155 -18 -216
-35 -68 -19 -132 -79 -149 -138 -6 -22 -18 -107 -27 -190 -44 -430 -156 -911
-226 -977 -39 -36 -119 -61 -200 -62 l-67 -1 -7 -64 c-18 -173 31 -300 122
-316 26 -5 48 -17 65 -38 24 -28 33 -32 95 -35 185 -10 314 116 409 400 l35
103 -5 -70 c-15 -228 -16 -255 -5 -296 14 -52 55 -92 118 -115 26 -10 62 -30
79 -45 34 -29 89 -49 135 -49 55 0 58 5 58 105 0 124 15 264 51 475 27 158 40
203 53 189 3 -2 -4 -56 -15 -119 -27 -156 -30 -334 -6 -378 20 -36 76 -77 122
-88 17 -4 45 -20 62 -35 46 -40 138 -62 169 -41 6 4 14 52 18 107 16 240 77
588 196 1123 44 200 80 367 80 372 0 6 -39 34 -77 55 -1 0 2 17 6 37 8 32 5
40 -18 62 -53 50 -122 76 -204 76 -42 0 -78 -3 -80 -7z m153 -53 c20 -5 49
-22 67 -37 l31 -28 -54 -235 c-94 -414 -134 -608 -169 -819 -29 -173 -65 -459
-65 -516 0 -22 -86 -20 -130 3 -87 46 -91 153 -20 536 17 88 28 161 26 163 -3
3 -226 -56 -233 -61 -5 -4 -54 -286 -67 -389 -9 -62 -18 -169 -21 -238 l-5
-124 -37 -3 c-54 -5 -107 14 -142 49 -29 29 -31 35 -31 107 0 256 47 545 181
1117 43 187 82 351 85 364 5 21 9 23 46 17 23 -4 68 -21 101 -38 l59 -32 -6
-42 c-6 -44 -92 -455 -102 -487 -5 -16 -2 -18 15 -12 12 4 62 15 112 25 49 10
92 20 94 22 3 2 14 47 24 100 11 53 45 200 76 326 30 127 55 233 55 236 0 9
72 7 110 -4z m-790 -17 c0 -48 -176 -946 -224 -1148 -42 -173 -112 -331 -182
-413 -42 -50 -137 -98 -207 -107 -66 -8 -119 11 -140 52 -19 37 -31 131 -22
181 l6 39 69 5 c84 6 169 44 205 92 71 94 173 536 225 976 12 96 24 186 27
200 15 66 87 106 236 129 4 0 7 -2 7 -6z m107 -265 c-3 -8 -6 -5 -6 6 -1 11 2
17 5 13 3 -3 4 -12 1 -19z"/>
</g>
</svg>
