<svg width="291" height="263" viewBox="0 0 291 263" fill="none" xmlns="http://www.w3.org/2000/svg">
<path d="M248.773 79.6786C251.235 77.253 253.291 74.9415 255 72.7096C258.594 68.0156 260.653 63.6739 261.728 59.3644C265.471 44.3592 257.286 29.7435 260.446 2.00002C249.273 10.5 247.287 51.5493 230.102 53.4982C226.497 49.8468 220.573 50.2163 218.412 54.3887C215.198 52.0714 210.529 53.4396 209.27 57.7921C206.096 54.3765 201.623 56.4117 200.794 61C196.718 58.2112 190.83 62.8337 193.256 68.6411C181.681 72.3951 169 85.3474 169 111.347C169 127.347 181 141.347 192.5 141.347C199.5 141.347 206.601 139.554 210.084 128.847C198.073 138.524 180.174 120.973 189.755 105.664C195.541 95.0815 212.308 93.6674 226.5 91.6487C238.331 89.9659 248.372 87.8631 248.773 79.6786Z" fill="url(#paint0_linear_57_23)"/>
<path d="M42.7156 79.6786C40.3291 77.3277 38.3243 75.0839 36.6472 72.916C32.97 68.1627 30.8685 63.7738 29.7739 59.4192C25.9972 44.3947 34.2065 29.7773 31.0423 2C42.2151 10.5 44.2015 51.5493 61.3867 53.4982C64.9917 49.8468 70.9153 50.2163 73.0761 54.3887C76.2901 52.0714 80.959 53.4396 82.2185 57.7921C85.3922 54.3765 89.8656 56.4117 90.6939 61C94.7703 58.2112 100.658 62.8337 98.2323 68.6411C109.807 72.3951 122 86.8474 122 111.347C122 125.847 109.731 141.347 98.5 141.347C91.5 141.347 84.8877 139.554 81.4038 128.847C93.4157 138.524 111.315 120.973 101.733 105.664C95.8804 94.9599 78.7935 93.6361 64.5 91.5788C52.8826 89.9068 43.1105 87.7502 42.7156 79.6786Z" fill="url(#paint1_linear_57_23)"/>
<path d="M126.863 189.46C123.623 189.46 120.809 190.624 118.938 193.1C118.904 193.145 118.871 193.19 118.838 193.235C117.382 195.236 116.525 198.063 116.525 201.79C116.525 213.24 126.864 221.46 126.864 221.46C126.864 221.46 122.114 210.891 122.114 203.258C122.114 201.883 122.277 200.545 122.612 199.354C122.612 201.702 124.628 204.511 128.819 204.511C133.011 204.511 135.525 200.987 135.525 197.093C135.525 195.282 134.911 193.67 133.839 192.4C132.303 190.58 129.825 189.46 126.863 189.46Z" fill="#D43100"/>
<path d="M164.737 189.347C167.916 189.347 170.684 190.467 172.554 192.847C172.681 193.008 172.803 193.175 172.921 193.348C174.28 195.333 175.075 198.088 175.075 201.678C175.075 213.127 164.737 221.347 164.737 221.347C164.737 221.347 169.487 210.779 169.487 203.146C169.487 201.811 169.333 200.511 169.018 199.347C169.018 201.696 166.972 204.399 162.781 204.399C158.59 204.399 156.075 200.875 156.075 196.98C156.075 195.23 156.649 193.665 157.657 192.414C159.184 190.52 161.707 189.347 164.737 189.347Z" fill="#D43100"/>
<path d="M167.575 138.347C152.575 138.347 146 149.847 146 168.847C146 184.347 153.778 190.351 157.657 192.414C159.184 190.52 161.707 189.347 164.737 189.347C167.916 189.347 170.684 190.467 172.554 192.847C172.681 193.008 172.803 193.175 172.921 193.348C175.97 197.376 180.531 200.347 185.5 200.347C187.254 200.347 188.929 200.134 190.509 199.691C194.334 198.62 197.604 196.208 200.095 192.239C217.075 197.347 230.488 185.347 230.488 171.847C226.575 174.847 222.202 174.953 218.075 173.847C208.075 171.168 208.271 158.847 197.075 155.847C192.319 154.573 186.075 154.847 181.757 158.364C186.257 146.847 178.075 138.347 167.575 138.347Z" fill="url(#paint2_linear_57_23)"/>
<path d="M146 168.847C146 149.847 138.913 138.347 123.913 138.347C113.413 138.347 105.231 146.847 109.731 158.364C105.413 154.847 99.1697 154.573 94.4131 155.847C83.2169 158.847 83.4131 171.168 73.4131 173.847C69.2867 174.953 64.9131 174.847 60.9999 171.847C60.9999 185.347 74.4131 197.347 91.3932 192.239C94.9131 197.847 99.9131 200.178 105.913 200.178C110.924 200.178 115.786 197.313 118.838 193.235C118.871 193.19 118.904 193.145 118.937 193.101L118.938 193.1C120.809 190.624 123.623 189.46 126.863 189.46C129.825 189.46 132.303 190.58 133.839 192.4C137.718 190.336 146 184.347 146 168.847Z" fill="url(#paint3_linear_57_23)"/>
<path fill-rule="evenodd" clip-rule="evenodd" d="M289.488 109.347C272.988 102.847 272.488 95.3474 272.488 95.3474C278.488 73.8474 267.728 64.3644 261.728 59.3644C260.653 63.6739 258.594 68.0156 255 72.7096C253.291 74.9415 251.235 77.253 248.773 79.6786C248.372 87.8631 238.331 89.9659 226.5 91.6487C212.308 93.6674 195.541 95.0815 189.755 105.664C180.174 120.973 198.073 138.524 210.084 128.847C206.601 139.554 199.5 141.347 192.5 141.347C181 141.347 169 127.347 169 111.347C169 85.3474 181.681 72.3951 193.256 68.6411C190.83 62.8337 196.718 58.2112 200.794 61C201.623 56.4117 206.096 54.3765 209.27 57.7921C210.529 53.4396 215.198 52.0714 218.412 54.3887C220.573 50.2163 226.497 49.8468 230.102 53.4982C247.287 51.5493 249.273 10.5 260.446 2.00002C245.526 2.00003 232.139 4.32181 221.277 10.3474C218.06 12.1317 215.113 14.1397 212.488 16.3474C208.269 19.8965 205.241 24.1585 202.555 28.7335C185.21 19.5613 165.809 14.6861 146 14.6575C126.013 14.6021 106.427 19.4824 88.9333 28.7335C86.2474 24.1585 83.219 19.8965 79 16.3474C76.3756 14.1397 73.4282 12.1317 70.2117 10.3474C59.3496 4.32181 45.9626 2.00001 31.0423 2C42.2151 10.5 44.2015 51.5493 61.3867 53.4982C64.9917 49.8468 70.9153 50.2163 73.0761 54.3887C76.2901 52.0714 80.959 53.4396 82.2185 57.7921C85.3922 54.3765 89.8656 56.4117 90.6939 61C94.7703 58.2112 100.658 62.8337 98.2323 68.6411C109.807 72.3951 122 86.8474 122 111.347C122 125.847 109.731 141.347 98.5 141.347C91.5 141.347 84.8877 139.554 81.4038 128.847C93.4157 138.524 111.315 120.973 101.733 105.664C95.8804 94.9599 78.7935 93.6361 64.5 91.5788C52.8826 89.9068 43.1105 87.7502 42.7156 79.6786C40.3291 77.3277 38.3243 75.0839 36.6472 72.916C32.97 68.1627 30.8685 63.7738 29.7739 59.4192C23.7739 64.4192 13 73.8474 19 95.3474C19 95.3474 18.5 102.847 2 109.347C6.53236 119.854 12.9322 128.578 20.5 135.625C24.5 160.847 3 169.347 3 169.347C17.5 191.847 42 206.347 69.9988 210.347C73.7833 223.197 98 261.347 146 261.347C194 261.347 217.705 223.197 221.489 210.347C249.488 206.347 273.988 191.847 288.488 169.347C288.488 169.347 266.988 160.847 270.988 135.625C278.556 128.578 284.956 119.854 289.488 109.347ZM146 168.847C146 149.847 152.575 138.347 167.575 138.347C178.075 138.347 186.257 146.847 181.757 158.364C186.075 154.847 192.319 154.573 197.075 155.847C208.271 158.847 208.075 171.168 218.075 173.847C222.202 174.953 226.575 174.847 230.488 171.847C230.488 185.347 217.075 197.347 200.095 192.239C197.604 196.208 194.334 198.62 190.509 199.691C188.929 200.134 187.254 200.347 185.5 200.347C180.531 200.347 175.97 197.376 172.921 193.348C174.28 195.333 175.075 198.088 175.075 201.678C175.075 213.127 164.737 221.347 164.737 221.347C164.737 221.347 169.487 210.779 169.487 203.146C169.487 201.811 169.333 200.511 169.018 199.347C169.018 201.696 166.972 204.399 162.781 204.399C158.59 204.399 156.075 200.875 156.075 196.98C156.075 195.23 156.649 193.665 157.657 192.414C153.778 190.351 146 184.347 146 168.847C146 184.347 137.718 190.336 133.839 192.4C134.911 193.67 135.525 195.282 135.525 197.093C135.525 200.987 133.011 204.511 128.819 204.511C124.628 204.511 122.612 201.702 122.612 199.354C122.277 200.545 122.114 201.883 122.114 203.258C122.114 210.891 126.864 221.46 126.864 221.46C126.864 221.46 116.525 213.24 116.525 201.79C116.525 198.063 117.382 195.236 118.838 193.235C115.786 197.313 110.924 200.178 105.913 200.178C99.9131 200.178 94.9131 197.847 91.3932 192.239C74.4131 197.347 60.9999 185.347 60.9999 171.847C64.9131 174.847 69.2867 174.953 73.4131 173.847C83.4131 171.168 83.2169 158.847 94.4131 155.847C99.1697 154.573 105.413 154.847 109.731 158.364C105.231 146.847 113.413 138.347 123.913 138.347C138.913 138.347 146 149.847 146 168.847Z" fill="url(#paint4_linear_57_23)"/>
<path d="M219.417 39.5182C214.076 35.4441 208.433 31.8421 202.555 28.7335M202.555 28.7335C205.241 24.1585 208.269 19.8965 212.488 16.3474C215.113 14.1397 218.06 12.1317 221.277 10.3474C232.139 4.32181 245.526 2.00003 260.446 2.00002M202.555 28.7335C185.21 19.5613 165.809 14.6861 146 14.6575C126.013 14.6021 106.427 19.4824 88.9333 28.7335M261.728 59.3644C267.728 64.3644 278.488 73.8474 272.488 95.3474C272.488 95.3474 272.988 102.847 289.488 109.347C284.956 119.854 278.556 128.578 270.988 135.625M261.728 59.3644C265.471 44.3592 257.286 29.7435 260.446 2.00002M261.728 59.3644C260.653 63.6739 258.594 68.0156 255 72.7096M221.489 137.347C263.489 120.347 270.998 86.2128 254.998 72.7128L255 72.7096M233.488 155.847C247.012 152.32 260.189 145.68 270.988 135.625M270.988 135.625C266.988 160.847 288.488 169.347 288.488 169.347C273.988 191.847 249.488 206.347 221.489 210.347C217.705 223.197 194 261.347 146 261.347C98 261.347 73.7833 223.197 69.9988 210.347C42 206.347 17.5 191.847 3 169.347C3 169.347 24.5 160.847 20.5 135.625M190.5 199.575C190.503 199.614 190.506 199.652 190.509 199.691M175.988 38.8474C158.988 36.8474 145.989 46.8474 145.989 59.3474C145.989 46.8474 132.5 36.8474 115.5 38.8474M181.489 53.3474C159.488 53.3474 145.989 69.8474 145.989 95.8474C145.989 69.8474 132 53.3474 109.999 53.3474M260.446 2.00002C249.273 10.5 247.287 51.5493 230.102 53.4982C226.497 49.8468 220.573 50.2163 218.412 54.3887C215.198 52.0714 210.529 53.4396 209.27 57.7921C206.096 54.3765 201.623 56.4117 200.794 61C196.718 58.2112 190.83 62.8337 193.256 68.6411C181.681 72.3951 169 85.3474 169 111.347C169 127.347 181 141.347 192.5 141.347C199.5 141.347 206.601 139.554 210.084 128.847C198.073 138.524 180.174 120.973 189.755 105.664C195.541 95.0815 212.308 93.6674 226.5 91.6487M146 168.847C146 149.847 152.575 138.347 167.575 138.347C178.075 138.347 186.257 146.847 181.757 158.364M146 168.847C146 184.347 153.778 190.351 157.657 192.414M146 168.847C146 149.847 138.913 138.347 123.913 138.347C113.413 138.347 105.231 146.847 109.731 158.364M146 168.847C146 184.347 137.718 190.336 133.839 192.4M181.757 158.364C186.075 154.847 192.319 154.573 197.075 155.847C208.271 158.847 208.075 171.168 218.075 173.847C222.202 174.953 226.575 174.847 230.488 171.847C230.488 185.347 217.075 197.347 200.095 192.239C197.604 196.208 194.334 198.62 190.509 199.691M181.757 158.364C181.757 158.364 177.075 165.347 171.075 165.847C166.591 166.221 160.776 164.023 160.075 158.847C159.417 153.991 162.575 149.847 167.575 149.847C170.663 149.847 173.075 152.347 173.075 154.847C173.075 158.347 169.575 159.847 167.575 157.847M157.657 192.414C159.184 190.52 161.707 189.347 164.737 189.347C167.916 189.347 170.684 190.467 172.554 192.847M157.657 192.414C156.649 193.665 156.075 195.23 156.075 196.98C156.075 200.875 158.59 204.399 162.781 204.399C166.972 204.399 169.018 201.696 169.018 199.347M184.257 179.347C183.075 177.847 178.575 177.347 178.575 181.847C178.575 184.847 180.575 187.347 184.025 187.347C190.075 187.347 192.575 182.847 192.575 178.847C192.575 173.347 187.893 169.347 182.075 169.347C173.893 169.347 169 174.517 169 182.517C169 185.919 170.303 189.68 172.554 192.847M164.178 198.448C162.502 199.916 160.546 199.329 160.546 197.568C160.546 196.1 161.663 194.71 164.178 194.71C166.71 194.71 168.292 196.669 169.018 199.347M169.018 199.347C169.333 200.511 169.487 201.811 169.487 203.146C169.487 210.779 164.737 221.347 164.737 221.347C164.737 221.347 175.075 213.127 175.075 201.678C175.075 198.088 174.28 195.333 172.921 193.348M72.0709 39.5182C77.4128 35.4441 83.0549 31.8421 88.9333 28.7335M88.9333 28.7335C86.2474 24.1585 83.219 19.8965 79 16.3474C76.3756 14.1397 73.4282 12.1317 70.2117 10.3474C59.3496 4.32181 45.9626 2.00001 31.0423 2M29.7739 59.4192C23.7739 64.4192 13 73.8474 19 95.3474C19 95.3474 18.5 102.847 2 109.347C6.53236 119.854 12.9322 128.578 20.5 135.625M29.7739 59.4192C25.9972 44.3947 34.2065 29.7773 31.0423 2M29.7739 59.4192C30.8685 63.7738 32.97 68.1627 36.6472 72.916M36.6472 72.916C20.6472 86.416 27.9988 120.347 69.9988 137.347M36.6472 72.916C38.3243 75.0839 40.3291 77.3277 42.7156 79.6786C43.1105 87.7502 52.8826 89.9068 64.5 91.5788M58 155.847C44.4767 152.32 31.2992 145.68 20.5 135.625M101 199.578C99.0037 225.078 120.491 242.347 145.989 242.347C171.449 242.347 192.432 225.127 190.509 199.691M31.0423 2C42.2151 10.5 44.2015 51.5493 61.3867 53.4982C64.9917 49.8468 70.9153 50.2163 73.0761 54.3887C76.2901 52.0714 80.959 53.4396 82.2185 57.7921C85.3922 54.3765 89.8656 56.4117 90.6939 61C94.7703 58.2112 100.658 62.8337 98.2323 68.6411C109.807 72.3951 122 86.8474 122 111.347C122 125.847 109.731 141.347 98.5 141.347C91.5 141.347 84.8877 139.554 81.4038 128.847C93.4157 138.524 111.315 120.973 101.733 105.664C95.8804 94.9599 78.7935 93.6361 64.5 91.5788M109.731 158.364C105.413 154.847 99.1697 154.573 94.4131 155.847C83.2169 158.847 83.4131 171.168 73.4131 173.847C69.2867 174.953 64.9131 174.847 60.9999 171.847C60.9999 185.347 74.4131 197.347 91.3932 192.239C94.9131 197.847 99.9131 200.178 105.913 200.178C110.924 200.178 115.786 197.313 118.838 193.235M109.731 158.364C109.731 158.364 114.413 165.347 120.413 165.847C124.898 166.221 130.712 164.023 131.413 158.847C132.071 153.991 128.913 149.847 123.913 149.847C120.826 149.847 118.413 152.347 118.413 154.847C118.413 158.347 121.913 159.847 123.913 157.847M133.839 192.4C132.303 190.58 129.825 189.46 126.863 189.46C123.623 189.46 120.809 190.624 118.938 193.1M133.839 192.4C134.911 193.67 135.525 195.282 135.525 197.093C135.525 200.987 133.011 204.511 128.819 204.511C124.628 204.511 122.612 201.702 122.612 199.354C122.277 200.545 122.114 201.883 122.114 203.258M107.231 179.347C108.413 177.847 112.913 177.347 112.913 181.847C112.913 184.847 110.913 187.347 107.463 187.347C101.413 187.347 98.9131 182.847 98.9131 178.847C98.9131 173.347 103.595 169.347 109.413 169.347C117.595 169.347 122.413 174.347 122.413 182.347C122.413 185.845 121.303 189.879 118.937 193.101M122.114 203.258C122.114 210.891 126.864 221.46 126.864 221.46C126.864 221.46 116.525 213.24 116.525 201.79C116.525 198.063 117.382 195.236 118.838 193.235M122.114 203.258C122.114 198.854 123.678 194.71 127.31 194.71C129.825 194.71 130.943 196.1 130.943 197.568C130.943 199.329 128.987 199.916 127.31 198.448M172.554 192.847C172.681 193.008 172.803 193.175 172.921 193.348M172.554 192.847C172.674 193.016 172.797 193.183 172.921 193.348M172.921 193.348C175.97 197.376 180.531 200.347 185.5 200.347C187.254 200.347 188.929 200.134 190.509 199.691M118.938 193.1L118.937 193.101M118.938 193.1C118.904 193.145 118.871 193.19 118.838 193.235M118.937 193.101C118.904 193.145 118.871 193.19 118.838 193.235M255 72.7096C253.291 74.9415 251.235 77.253 248.773 79.6786C248.372 87.8631 238.331 89.9659 226.5 91.6487M64.5 91.5788C64.1667 98.835 68.9 114.247 90.5 117.847M226.5 91.6487C227.03 98.7149 222.63 113.847 200.794 117.847" stroke="white" stroke-width="3" stroke-linecap="square" stroke-linejoin="bevel"/>
<defs>
<linearGradient id="paint0_linear_57_23" x1="257" y1="8.50001" x2="199" y2="150.5" gradientUnits="userSpaceOnUse">
<stop offset="0.280541" stop-color="#864000"/>
<stop offset="0.880547" stop-color="#FF7A00"/>
<stop offset="1" stop-color="#D43100"/>
</linearGradient>
<linearGradient id="paint1_linear_57_23" x1="35" y1="5.5" x2="103.5" y2="143" gradientUnits="userSpaceOnUse">
<stop offset="0.365547" stop-color="#864000"/>
<stop offset="0.905069" stop-color="#FF7A00"/>
<stop offset="1" stop-color="#D43100"/>
</linearGradient>
<linearGradient id="paint2_linear_57_23" x1="146" y1="185.667" x2="228.5" y2="183" gradientUnits="userSpaceOnUse">
<stop stop-color="#FF7A00"/>
<stop offset="1" stop-color="#D43100"/>
</linearGradient>
<linearGradient id="paint3_linear_57_23" x1="146" y1="176.5" x2="60" y2="176.5" gradientUnits="userSpaceOnUse">
<stop stop-color="#FF7A00"/>
<stop offset="1" stop-color="#D43100"/>
</linearGradient>
<linearGradient id="paint4_linear_57_23" x1="146" y1="-160" x2="145.744" y2="261.347" gradientUnits="userSpaceOnUse">
<stop offset="0.373959" stop-color="#864000"/>
<stop offset="0.501081" stop-color="#D43100"/>
<stop offset="0.784494" stop-color="#FF7A00"/>
</linearGradient>
</defs>
</svg>
